<?xml version="1.0" encoding="UTF-8"?>
<svg xmlns="http://www.w3.org/2000/svg" viewBox="0 0 194.25 268.88">
  <defs>
    <style>
      .cls-1 {
        fill: none;
        stroke: #231f20;
        stroke-miterlimit: 10;
      }

      .cls-2 {
        fill: #f7941d;
      }

      .cls-2, .cls-3, .cls-4, .cls-5 {
        stroke-width: 0px;
      }

      .cls-3 {
        fill: #181826;
        fill-rule: evenodd;
      }

      .cls-6 {
        mix-blend-mode: overlay;
      }

      .cls-4 {
        fill: #231f20;
      }

      .cls-5 {
        fill: #071c23;
      }

      .cls-7 {
        isolation: isolate;
      }
    </style>
  </defs>
  <g class="cls-7">
    <g id="Layer_1" data-name="Layer 1">
      <path class="cls-3" d="M4.28,5.86v257.15h185.7V5.86H4.28ZM189.81,262.85H4.44V6.02h185.38v256.84Z"/>
      <path class="cls-4" d="M4.12,5.7v257.46h186V5.7H4.12ZM189.81,262.85H4.44V6.02h185.38v256.84Z"/>
      <rect class="cls-2" x="4.44" y="6.02" width="185.37" height="256.83"/>
      <rect class="cls-1" x="7.12" y="8.44" width="180" height="252" rx="4.38" ry="4.38"/>
      <g>
        <g class="cls-6">
          <path class="cls-5" d="M165.81,47.21c-1.14-2.17-3.85-3.07-6.86-2.54.6-.54,1.17-1.17,1.69-1.87,2.93-3.99,3.03-8.74.21-10.81-2.47-1.81-6.23-.89-9.09,2.05.58-4.06-.97-7.61-3.91-8.46-1.7-.49-3.6.04-5.22,1.44-1.46,1.27-2.6,3.15-3.23,5.31-.24.83-.39,1.66-.46,2.48-1.42-2.71-3.78-4.31-6.19-3.89-3.31.57-5.27,4.68-4.46,9.35.36,2.11,1.25,4.02,2.5,5.38.74.8,1.58,1.38,2.46,1.7-3.59,1.38-5.92,3.54-6.47,6.05-.4,1.85.2,3.65,1.66,4.95,1.83,1.63,4.14,1.58,6.18,1.53,1.51-.03,2.94-.07,4.09.53l.09.05c1.15.54,2,1.69,2.89,2.91,1.18,1.61,2.51,3.43,4.82,3.94.05.01.11.02.16.03,1.92.37,3.72-.25,4.94-1.7,1.66-1.96,1.95-5.12.86-8.81.56.36,1.2.62,1.91.77,1.97.43,4.4.07,6.73-1.15,4.2-2.21,6.26-6.26,4.7-9.23Z"/>
          <path class="cls-2" d="M147.75,67.68c-.37,0-.74-.04-1.12-.11-.05,0-.11-.02-.17-.03-2.39-.53-3.75-2.39-4.96-4.03-.88-1.19-1.7-2.32-2.8-2.83l-.1-.05c-1.1-.57-2.5-.54-3.98-.51-2.08.04-4.45.1-6.34-1.59-1.53-1.36-2.16-3.25-1.74-5.18.54-2.46,2.69-4.58,6.08-6.01-.73-.35-1.42-.88-2.02-1.53-1.28-1.39-2.19-3.35-2.56-5.5-.83-4.8,1.22-9.03,4.66-9.62,2.27-.39,4.55.89,6.08,3.37.08-.6.21-1.2.38-1.79.64-2.2,1.81-4.12,3.3-5.42,1.68-1.46,3.66-2.01,5.44-1.49,2.86.83,4.51,4.09,4.16,8.06,2.93-2.7,6.53-3.37,8.92-1.61,2.92,2.15,2.85,7.04-.16,11.14-.36.49-.76.96-1.19,1.4,2.9-.3,5.31.73,6.38,2.77h0c1.62,3.09-.48,7.29-4.8,9.55-2.29,1.21-4.8,1.63-6.89,1.17-.52-.12-1.02-.29-1.47-.52.93,3.56.56,6.55-1.06,8.48-1.04,1.23-2.47,1.88-4.05,1.88ZM135.66,59.63c1.15,0,2.23.09,3.16.57l.09.04c1.2.57,2.06,1.74,2.98,2.98,1.15,1.57,2.46,3.36,4.68,3.85.05.01.1.02.15.03,1.84.35,3.56-.24,4.72-1.62,1.6-1.9,1.89-4.95.81-8.59l-.18-.61.53.34c.54.34,1.16.59,1.83.74,1.98.44,4.37.02,6.57-1.13,4.08-2.14,6.1-6.06,4.6-8.91h0c-1.06-2.02-3.59-2.95-6.61-2.42l-.8.14.6-.55c.61-.55,1.17-1.17,1.66-1.84,2.86-3.88,2.97-8.48.26-10.48-2.33-1.71-5.95-.88-8.78,2.03l-.51.52.1-.72c.58-4.02-.96-7.4-3.74-8.2-1.62-.47-3.44.04-4.99,1.4-1.42,1.24-2.54,3.08-3.15,5.19-.23.8-.38,1.62-.45,2.43l-.07.82-.38-.72c-1.42-2.71-3.7-4.16-5.94-3.77-3.18.55-5.05,4.54-4.27,9.08.36,2.07,1.23,3.93,2.44,5.26.7.76,1.52,1.32,2.37,1.63l.59.22-.59.23c-3.55,1.37-5.79,3.46-6.32,5.88-.38,1.76.2,3.48,1.59,4.73,1.76,1.57,4.02,1.52,6.02,1.47.35,0,.7-.02,1.04-.02Z"/>
        </g>
        <g>
          <path class="cls-5" d="M166.88,46.53c-1.14-2.17-3.85-3.07-6.86-2.54.6-.54,1.17-1.17,1.69-1.87,2.93-3.99,3.03-8.74.21-10.81-2.47-1.81-6.23-.89-9.09,2.05.58-4.06-.97-7.61-3.91-8.46-1.7-.49-3.6.04-5.22,1.44-1.46,1.27-2.6,3.15-3.23,5.31-.24.83-.39,1.66-.46,2.48-1.42-2.71-3.78-4.31-6.19-3.89-3.31.57-5.27,4.68-4.46,9.35.36,2.11,1.25,4.02,2.5,5.38.74.8,1.58,1.38,2.46,1.7-3.59,1.38-5.92,3.54-6.47,6.05-.4,1.85.2,3.65,1.66,4.95,1.83,1.63,4.14,1.58,6.18,1.53,1.51-.03,2.94-.07,4.09.53l.09.05c1.15.54,2,1.69,2.89,2.91,1.18,1.61,2.51,3.43,4.82,3.94.05.01.11.02.16.03,1.92.37,3.72-.25,4.94-1.7,1.66-1.96,1.95-5.12.86-8.81.56.36,1.2.62,1.91.77,1.97.43,4.4.07,6.73-1.15,4.2-2.21,6.26-6.26,4.7-9.23Z"/>
          <path class="cls-2" d="M148.82,66.99c-.37,0-.74-.04-1.12-.11l-.17-.03c-2.39-.53-3.75-2.39-4.96-4.03-.88-1.19-1.7-2.32-2.8-2.83l-.1-.05c-1.1-.57-2.49-.54-3.97-.51-2.09.05-4.45.1-6.35-1.59-1.53-1.36-2.16-3.25-1.74-5.18.54-2.46,2.69-4.58,6.08-6.01-.73-.35-1.42-.88-2.02-1.53-1.28-1.39-2.19-3.35-2.56-5.5-.83-4.8,1.22-9.03,4.66-9.62,2.27-.4,4.55.89,6.08,3.37.08-.6.21-1.2.38-1.79.64-2.2,1.81-4.12,3.3-5.42,1.68-1.46,3.66-2.01,5.44-1.49,2.86.83,4.51,4.09,4.16,8.06,2.93-2.7,6.53-3.37,8.92-1.61,2.92,2.15,2.85,7.04-.16,11.14-.36.49-.76.96-1.19,1.4,2.9-.29,5.31.73,6.38,2.77h0c.79,1.51.73,3.33-.19,5.12-.9,1.77-2.54,3.34-4.61,4.43-2.29,1.21-4.8,1.63-6.89,1.17-.52-.12-1.02-.29-1.47-.52.93,3.56.56,6.55-1.06,8.48-1.04,1.23-2.47,1.88-4.05,1.88ZM136.72,58.95c1.16,0,2.24.09,3.17.57l.09.04c1.2.56,2.06,1.74,2.97,2.98,1.16,1.58,2.46,3.36,4.68,3.85l.14.03c1.84.35,3.57-.24,4.73-1.62,1.6-1.9,1.89-4.95.81-8.59l-.18-.61.53.34c.54.35,1.16.59,1.83.74,1.98.44,4.37.02,6.57-1.13,1.99-1.04,3.55-2.54,4.41-4.23.84-1.66.91-3.32.19-4.69h0c-1.06-2.02-3.59-2.95-6.61-2.42l-.8.14.6-.55c.61-.55,1.17-1.17,1.66-1.84,2.86-3.88,2.97-8.48.26-10.48-2.33-1.72-5.95-.88-8.78,2.03l-.51.52.1-.72c.58-4.02-.96-7.4-3.74-8.2-1.62-.46-3.44.04-4.99,1.4-1.42,1.24-2.54,3.08-3.15,5.19-.23.8-.38,1.62-.45,2.43l-.07.82-.38-.72c-1.42-2.71-3.7-4.15-5.94-3.77-3.18.55-5.05,4.54-4.27,9.08.36,2.06,1.22,3.93,2.44,5.26.7.76,1.52,1.32,2.37,1.63l.59.22-.59.23c-3.55,1.37-5.79,3.46-6.32,5.88-.38,1.76.2,3.48,1.59,4.73,1.76,1.57,4.02,1.51,6.02,1.47.35,0,.69-.01,1.03-.01Z"/>
        </g>
        <g>
          <g>
            <path class="cls-5" d="M147.16,44.87c-3.7-1.71-6.23,1.3-11.07,2.79-7.1,2.18-8.12,6.6-5.56,8.89s6.74.18,9.94,1.83c0,0,.02.01.03.02.01,0,.02,0,.03.01,3.25,1.53,4.13,6.12,7.51,6.76,3.37.64,6.25-2.86,3.66-9.82-1.77-4.74-.93-8.58-4.53-10.48Z"/>
            <path class="cls-2" d="M148.8,65.48c-.27,0-.54-.03-.82-.08-1.91-.36-3.07-1.94-4.19-3.47-.95-1.29-1.93-2.63-3.38-3.31l.04-.25-.11.21c-1.42-.74-3.08-.7-4.68-.66-1.9.04-3.85.09-5.3-1.21-1.11-.99-1.57-2.34-1.27-3.73.51-2.34,3.03-4.37,6.91-5.56,1.6-.49,2.96-1.16,4.17-1.75,2.52-1.23,4.5-2.21,7.07-1.02h.01c2.5,1.32,2.94,3.49,3.5,6.24.27,1.32.57,2.81,1.15,4.37,1.42,3.81,1.35,7.04-.2,8.87-.74.88-1.77,1.35-2.91,1.35ZM136.73,57.43c1.32,0,2.64.11,3.84.73,1.61.76,2.63,2.14,3.61,3.49,1.11,1.52,2.17,2.96,3.89,3.29,1.28.24,2.48-.16,3.28-1.11,1.43-1.7,1.47-4.76.12-8.4-.6-1.6-.9-3.11-1.17-4.44-.53-2.62-.95-4.69-3.25-5.91-2.36-1.09-4.26-.16-6.66,1.02-1.22.6-2.6,1.28-4.24,1.78-3.71,1.14-6.12,3.04-6.59,5.21-.26,1.21.14,2.4,1.12,3.27,1.31,1.17,3.09,1.12,4.98,1.08.36,0,.71-.02,1.07-.02Z"/>
          </g>
          <g>
            <path class="cls-5" d="M139.67,37.81c.65,3.78-.79,7.18-3.23,7.6s-4.94-2.3-5.59-6.08c-.65-3.78.79-7.18,3.23-7.6,2.43-.42,4.94,2.3,5.59,6.08Z"/>
            <path class="cls-2" d="M135.95,45.69c-2.38,0-4.7-2.69-5.33-6.32-.67-3.9.86-7.43,3.42-7.87,2.56-.45,5.19,2.37,5.86,6.27h0c.67,3.9-.86,7.43-3.42,7.87-.18.03-.36.05-.53.05ZM134.58,31.93c-.15,0-.31.01-.46.04-2.3.4-3.66,3.68-3.04,7.33.63,3.64,3,6.27,5.32,5.88,2.3-.4,3.66-3.68,3.03-7.33h0c-.59-3.4-2.7-5.92-4.85-5.92Z"/>
          </g>
          <g>
            <path class="cls-5" d="M157.31,46.51c-3.39,1.78-5.21,5-4.06,7.19s4.83,2.51,8.22.73,5.21-5,4.06-7.19c-1.15-2.19-4.83-2.51-8.22-.73Z"/>
            <path class="cls-2" d="M157.14,55.81c-1.86,0-3.41-.69-4.1-2-1.21-2.3.66-5.67,4.16-7.51,1.68-.88,3.48-1.29,5.08-1.15,1.64.15,2.87.85,3.46,1.98,1.21,2.3-.66,5.67-4.16,7.51-1.5.79-3.06,1.17-4.44,1.17ZM161.65,45.59c-1.35,0-2.83.39-4.23,1.12-3.27,1.72-5.05,4.8-3.96,6.87,1.09,2.07,4.63,2.35,7.9.63,3.27-1.72,5.05-4.8,3.96-6.87-.52-.98-1.61-1.6-3.08-1.73-.19-.02-.39-.03-.59-.03Z"/>
          </g>
          <g>
            <path class="cls-5" d="M150.99,34.7c-1.12,3.88-4.06,6.44-6.57,5.72-2.5-.72-3.62-4.46-2.5-8.34,1.12-3.88,4.06-6.44,6.57-5.72,2.5.72,3.62,4.46,2.5,8.34Z"/>
            <path class="cls-2" d="M145.29,40.77c-.31,0-.62-.04-.93-.13-2.62-.76-3.82-4.63-2.66-8.63.56-1.92,1.56-3.59,2.84-4.7,1.3-1.14,2.73-1.55,4.02-1.18,2.62.76,3.82,4.63,2.66,8.63h0c-1.02,3.54-3.55,6.01-5.93,6.01ZM147.62,26.47c-.91,0-1.87.41-2.77,1.2-1.21,1.05-2.16,2.64-2.69,4.47-1.08,3.75-.04,7.36,2.34,8.05,2.37.68,5.19-1.81,6.27-5.56h0c1.09-3.75.04-7.36-2.34-8.05-.26-.08-.53-.11-.81-.11Z"/>
          </g>
          <g>
            <path class="cls-5" d="M152.89,35.63c-2.39,3.26-2.63,7.15-.54,8.69,2.1,1.54,5.74.16,8.14-3.1s2.63-7.15.54-8.69c-2.1-1.54-5.74-.16-8.14,3.1Z"/>
            <path class="cls-2" d="M154.39,45.19c-.82,0-1.57-.23-2.18-.68-2.2-1.62-1.98-5.67.48-9.02h0c2.47-3.36,6.27-4.77,8.47-3.15,2.2,1.62,1.98,5.67-.49,9.02-1.18,1.61-2.71,2.83-4.29,3.43-.7.27-1.37.4-2,.4ZM153.08,35.77h0c-2.31,3.15-2.58,6.89-.59,8.36.95.7,2.27.78,3.73.22,1.5-.57,2.94-1.73,4.07-3.27,2.31-3.14,2.58-6.89.59-8.36-1.99-1.46-5.49-.09-7.81,3.05Z"/>
          </g>
        </g>
      </g>
      <g>
        <g class="cls-6">
          <path class="cls-5" d="M108.39,157.31c-2.36.66-3.81,3.12-3.93,6.17-.41-.7-.89-1.39-1.47-2.04-3.28-3.71-7.9-4.8-10.52-2.48-2.29,2.03-2.17,5.9.1,9.32-3.85-1.43-7.65-.65-9.1,2.04-.84,1.56-.72,3.52.31,5.4.93,1.69,2.54,3.21,4.51,4.27.76.41,1.54.73,2.33.97-2.94.82-5.01,2.79-5.11,5.24-.14,3.35,3.47,6.13,8.2,6.33,2.14.09,4.19-.38,5.79-1.32.94-.55,1.68-1.26,2.18-2.05.6,3.8,2.22,6.54,4.56,7.6,1.72.78,3.61.57,5.19-.59,1.97-1.44,2.41-3.72,2.79-5.72.28-1.48.55-2.88,1.38-3.88l.06-.08c.77-1.01,2.07-1.6,3.45-2.21,1.82-.82,3.88-1.74,4.86-3.88.02-.05.04-.1.07-.15.76-1.8.54-3.69-.62-5.19-1.57-2.03-4.6-2.98-8.43-2.69.47-.47.86-1.04,1.16-1.7.84-1.83,1-4.28.29-6.82-1.27-4.57-4.81-7.44-8.04-6.53Z"/>
          <path class="cls-2" d="M108.33,197.47c-.74,0-1.48-.16-2.2-.49-2.29-1.04-3.91-3.59-4.59-7.21-.5.64-1.15,1.2-1.92,1.65-1.63.96-3.73,1.45-5.92,1.35-4.87-.2-8.57-3.09-8.43-6.58.09-2.3,1.83-4.26,4.58-5.23-.57-.21-1.13-.46-1.67-.75-2.01-1.08-3.65-2.63-4.61-4.36-1.08-1.95-1.19-4-.32-5.63,1.41-2.62,4.95-3.55,8.75-2.37-2.02-3.43-1.92-7.09.3-9.06,2.72-2.4,7.48-1.31,10.86,2.5.41.46.78.95,1.12,1.46.32-2.9,1.83-5.04,4.05-5.66h0c3.36-.94,7.02,2,8.33,6.7.7,2.5.59,5.04-.3,6.98-.22.49-.5.93-.81,1.33,3.67-.16,6.52.83,8.06,2.82,1.21,1.57,1.45,3.54.65,5.43l-.07.16c-1.02,2.23-3.12,3.17-4.98,4-1.35.6-2.63,1.17-3.36,2.14l-.07.08c-.79.96-1.05,2.33-1.33,3.78-.39,2.05-.84,4.37-2.89,5.87-.99.73-2.11,1.1-3.23,1.1ZM101.81,188.51l.1.62c.59,3.76,2.16,6.39,4.42,7.42,1.64.75,3.45.54,4.96-.56,1.9-1.39,2.33-3.61,2.7-5.57.29-1.51.56-2.94,1.43-3.99l.06-.08c.81-1.06,2.13-1.65,3.54-2.28,1.78-.8,3.8-1.7,4.74-3.76l.06-.14c.73-1.72.51-3.53-.59-4.95-1.52-1.96-4.44-2.89-8.23-2.6l-.63.05.44-.45c.45-.46.82-1.01,1.11-1.63.84-1.84.94-4.27.28-6.66-1.24-4.44-4.64-7.24-7.75-6.37h0c-2.19.61-3.63,2.89-3.75,5.95l-.03.82-.41-.71c-.41-.71-.9-1.39-1.45-2-3.2-3.61-7.67-4.69-10.19-2.46-2.17,1.92-2.11,5.63.14,9.01l.4.61-.68-.25c-3.81-1.41-7.43-.62-8.81,1.93-.8,1.48-.68,3.37.31,5.18.91,1.65,2.48,3.13,4.42,4.17.73.39,1.5.71,2.28.95l.78.24-.79.22c-2.95.82-4.84,2.74-4.93,5.02-.13,3.22,3.37,5.89,7.97,6.08,2.09.07,4.1-.37,5.66-1.28.89-.52,1.61-1.2,2.1-1.97l.34-.54Z"/>
        </g>
        <g>
          <path class="cls-5" d="M107.95,156.12c-2.36.66-3.81,3.12-3.93,6.17-.41-.7-.89-1.39-1.47-2.04-3.28-3.71-7.9-4.8-10.52-2.48-2.29,2.03-2.17,5.9.1,9.32-3.85-1.43-7.65-.65-9.1,2.04-.84,1.56-.72,3.52.31,5.4.93,1.69,2.54,3.21,4.51,4.27.76.41,1.54.73,2.33.97-2.94.82-5.01,2.79-5.11,5.24-.14,3.35,3.47,6.13,8.2,6.33,2.14.09,4.19-.38,5.79-1.32.94-.55,1.68-1.26,2.18-2.05.6,3.8,2.22,6.54,4.56,7.6,1.72.78,3.61.57,5.19-.59,1.97-1.44,2.41-3.72,2.79-5.72.28-1.48.55-2.88,1.38-3.88l.06-.08c.77-1.01,2.07-1.6,3.45-2.21,1.82-.82,3.88-1.74,4.86-3.88.02-.05.04-.1.07-.15.76-1.8.54-3.69-.62-5.19-1.57-2.03-4.6-2.98-8.43-2.69.47-.47.86-1.04,1.16-1.7.84-1.83,1-4.28.29-6.82-1.27-4.57-4.81-7.44-8.04-6.53Z"/>
          <path class="cls-2" d="M107.89,196.28c-.74,0-1.48-.16-2.2-.49-2.29-1.04-3.91-3.59-4.59-7.21-.5.64-1.15,1.2-1.92,1.65-1.63.96-3.73,1.45-5.92,1.35-4.87-.2-8.57-3.09-8.43-6.58.09-2.3,1.83-4.26,4.58-5.23-.57-.21-1.13-.46-1.67-.75-2.01-1.08-3.65-2.63-4.61-4.36-1.08-1.95-1.19-4-.32-5.63,1.41-2.62,4.95-3.55,8.75-2.37-2.02-3.43-1.92-7.09.3-9.06,2.72-2.4,7.48-1.3,10.86,2.5.41.46.78.95,1.12,1.46.32-2.9,1.83-5.04,4.05-5.66h0c3.36-.94,7.02,2,8.33,6.7.7,2.5.59,5.04-.3,6.98-.22.49-.5.93-.81,1.33,3.67-.16,6.52.83,8.06,2.82,1.21,1.57,1.45,3.54.65,5.43l-.07.16c-1.02,2.23-3.12,3.17-4.98,4-1.35.6-2.63,1.17-3.36,2.14l-.07.08c-.79.96-1.05,2.33-1.33,3.78-.39,2.05-.84,4.37-2.89,5.87-.99.73-2.11,1.1-3.23,1.1ZM101.37,187.32l.1.62c.59,3.76,2.16,6.39,4.42,7.42,1.64.75,3.45.54,4.96-.56,1.9-1.39,2.33-3.61,2.7-5.57.29-1.51.56-2.94,1.43-3.99l.06-.08c.81-1.06,2.13-1.65,3.54-2.28,1.78-.8,3.8-1.7,4.74-3.76l.06-.14c.73-1.72.51-3.53-.59-4.95-1.52-1.96-4.44-2.89-8.23-2.6l-.63.05.44-.45c.45-.46.82-1.01,1.11-1.63.84-1.84.94-4.27.28-6.66-1.24-4.44-4.65-7.24-7.75-6.37h0c-2.2.61-3.63,2.89-3.75,5.95l-.03.82-.41-.71c-.41-.71-.9-1.39-1.45-2-3.19-3.61-7.67-4.69-10.19-2.46-2.17,1.92-2.11,5.63.14,9.01l.4.61-.68-.25c-3.81-1.41-7.43-.62-8.81,1.93-.8,1.48-.68,3.37.31,5.18.91,1.65,2.48,3.13,4.42,4.17.73.39,1.5.71,2.28.95l.78.24-.79.22c-2.95.82-4.84,2.74-4.93,5.02-.13,3.22,3.37,5.89,7.97,6.08,2.09.08,4.1-.37,5.66-1.28.89-.52,1.61-1.2,2.1-1.97l.34-.54Z"/>
        </g>
        <g>
          <g>
            <path class="cls-5" d="M102.17,175.06c-2.45,3.26-.04,6.37.4,11.41.64,7.4,4.74,9.33,7.52,7.3,2.77-2.03,1.6-6.55,3.88-9.33,0,0,.01-.02.02-.03,0,0,.01-.02.02-.03,2.18-2.86,6.85-2.75,8.19-5.92,1.34-3.16-1.48-6.72-8.83-5.64-5.01.73-8.58-.9-11.2,2.23Z"/>
            <path class="cls-2" d="M107.88,194.76c-.53,0-1.06-.11-1.57-.34-2.18-.99-3.63-3.88-3.98-7.93-.14-1.66-.51-3.14-.84-4.44-.68-2.72-1.21-4.87.49-7.13h0c1.81-2.18,4.03-2.16,6.83-2.12,1.34.02,2.86.04,4.52-.2,4.02-.59,7.16.16,8.63,2.06.87,1.12,1.03,2.55.45,3.91-.76,1.79-2.54,2.59-4.27,3.36-1.46.65-2.98,1.33-3.95,2.6l-.04.05c-1.02,1.24-1.34,2.87-1.64,4.45-.36,1.86-.73,3.78-2.29,4.93-.72.53-1.53.8-2.34.8ZM102.36,175.2c-1.56,2.08-1.05,4.13-.4,6.73.33,1.32.7,2.82.85,4.52.34,3.87,1.69,6.62,3.71,7.54,1.13.51,2.38.37,3.44-.41,1.42-1.04,1.75-2.78,2.11-4.64.31-1.63.64-3.32,1.73-4.65,1.08-1.41,2.65-2.12,4.17-2.79,1.72-.77,3.35-1.5,4.03-3.11.51-1.2.37-2.46-.39-3.44-1.36-1.75-4.34-2.44-8.18-1.88-1.69.25-3.23.23-4.59.21-2.67-.03-4.79-.06-6.46,1.93Z"/>
          </g>
          <g>
            <path class="cls-5" d="M93.7,180.89c3.83.16,6.85,2.29,6.75,4.75s-3.29,4.34-7.12,4.19c-3.83-.16-6.85-2.29-6.75-4.75.1-2.47,3.29-4.34,7.12-4.19Z"/>
            <path class="cls-2" d="M93.78,190.08c-.15,0-.31,0-.46,0-1.9-.08-3.66-.63-4.98-1.55-1.34-.95-2.05-2.17-2-3.45.1-2.5,3.16-4.42,6.91-4.42.15,0,.3,0,.45,0h0c1.9.08,3.66.63,4.98,1.55,1.34.95,2.05,2.17,2,3.45-.05,1.28-.86,2.44-2.28,3.27-1.27.75-2.9,1.15-4.63,1.15ZM93.25,181.12c-3.5,0-6.34,1.73-6.43,3.97-.05,1.11.59,2.19,1.8,3.04,1.24.87,2.92,1.39,4.72,1.47,1.81.07,3.52-.31,4.83-1.08,1.27-.75,2-1.77,2.04-2.88.05-1.11-.59-2.19-1.8-3.04-1.24-.87-2.92-1.39-4.72-1.47h0c-.15,0-.29,0-.44,0Z"/>
          </g>
          <g>
            <path class="cls-5" d="M105.91,165.47c1.03,3.69,3.79,6.15,6.17,5.48,2.38-.66,3.47-4.19,2.44-7.89s-3.79-6.15-6.17-5.48c-2.38.66-3.47,4.19-2.44,7.89Z"/>
            <path class="cls-2" d="M111.3,171.29c-2.28,0-4.67-2.38-5.62-5.76h0c-1.06-3.81.11-7.48,2.61-8.18,2.5-.7,5.4,1.83,6.47,5.65,1.06,3.81-.11,7.48-2.61,8.18-.28.08-.56.12-.85.12ZM106.14,165.41c.99,3.56,3.62,5.95,5.88,5.32,2.25-.63,3.27-4.03,2.28-7.59-.99-3.56-3.63-5.95-5.88-5.32-2.25.63-3.27,4.03-2.28,7.59h0Z"/>
          </g>
          <g>
            <path class="cls-5" d="M93.04,169.17c3.56,1.91,5.44,5.33,4.21,7.62-1.23,2.29-5.12,2.6-8.68.69-3.56-1.91-5.44-5.33-4.21-7.62,1.23-2.29,5.12-2.6,8.68-.69Z"/>
            <path class="cls-2" d="M93.2,178.97c-1.53,0-3.19-.45-4.75-1.29-1.76-.95-3.18-2.28-4-3.76-.84-1.51-.94-3-.31-4.18.64-1.18,1.94-1.91,3.66-2.05,1.69-.12,3.58.32,5.34,1.26,1.76.95,3.18,2.28,4,3.76.84,1.51.94,3,.31,4.18-.64,1.18-1.94,1.91-3.66,2.05-.19.01-.39.02-.59.02ZM88.4,168.15c-.19,0-.37,0-.56.02-1.56.12-2.72.76-3.28,1.8-.56,1.04-.45,2.36.31,3.73.77,1.4,2.13,2.67,3.81,3.57,1.68.91,3.49,1.34,5.08,1.21,1.56-.12,2.72-.76,3.28-1.8.56-1.04.45-2.36-.31-3.73-.77-1.4-2.13-2.67-3.81-3.57h0c-1.49-.8-3.07-1.23-4.52-1.23Z"/>
          </g>
          <g>
            <path class="cls-5" d="M94.35,167.51c2.68,3.03,6.43,4.08,8.38,2.35,1.95-1.73,1.36-5.58-1.32-8.61-2.68-3.03-6.43-4.08-8.38-2.35-1.95,1.73-1.36,5.58,1.32,8.61Z"/>
            <path class="cls-2" d="M100.36,170.92c-1.97,0-4.34-1.17-6.19-3.25h0c-1.33-1.5-2.2-3.24-2.45-4.91-.26-1.71.15-3.14,1.15-4.03,2.05-1.81,5.96-.75,8.72,2.37,1.33,1.5,2.2,3.24,2.45,4.91.26,1.71-.15,3.14-1.15,4.03-.68.6-1.56.88-2.53.88ZM95.42,158.31c-.86,0-1.64.25-2.23.77-.88.78-1.24,2.06-1,3.6.24,1.58,1.07,3.24,2.34,4.67h0c2.59,2.92,6.2,3.97,8.05,2.33.88-.78,1.24-2.06,1-3.6-.24-1.58-1.07-3.24-2.34-4.67-1.76-1.99-3.99-3.11-5.82-3.11Z"/>
          </g>
        </g>
      </g>
      <g>
        <g class="cls-6">
          <path class="cls-5" d="M170.24,123.67c-2.21-1.06-4.92-.17-7.02,2.04.16-.79.24-1.63.24-2.51-.02-4.95-2.77-8.82-6.27-8.81-3.06.01-5.53,3-6.08,7.07-1.95-3.61-5.31-5.54-8.18-4.47-1.66.62-2.87,2.17-3.33,4.27-.41,1.89-.21,4.08.57,6.18.3.81.67,1.57,1.11,2.26-2.75-1.33-5.6-1.21-7.29.56-2.32,2.43-1.45,6.9,1.98,10.17,1.55,1.48,3.4,2.48,5.22,2.83,1.07.21,2.09.16,2.99-.1-2.06,3.25-2.65,6.37-1.59,8.71.78,1.72,2.34,2.81,4.29,2.99,2.44.22,4.26-1.2,5.88-2.45,1.19-.93,2.32-1.8,3.6-2.01l.1-.02c1.25-.25,2.61.17,4.05.62,1.91.59,4.06,1.26,6.22.29.05-.02.1-.05.15-.07,1.76-.85,2.84-2.42,2.96-4.31.16-2.56-1.49-5.28-4.56-7.59.66-.05,1.33-.22,1.99-.51,1.84-.82,3.58-2.56,4.72-4.93,2.06-4.27,1.3-8.76-1.73-10.21Z"/>
        </g>
        <g>
          <g>
            <path class="cls-5" d="M153.86,132.89c-3.99.84-4.23,4.76-7.23,8.83-4.4,5.98-2.59,10.14.83,10.45,3.42.31,5.53-3.87,9.07-4.44.01,0,.02,0,.03,0,.01,0,.02,0,.03,0,3.52-.71,6.96,2.46,10.06.96,3.09-1.49,3.32-6.02-2.91-10.07-4.24-2.76-5.85-6.34-9.88-5.72Z"/>
            <path class="cls-2" d="M147.81,152.43c-.12,0-.25,0-.38-.02-1.48-.13-2.66-.95-3.24-2.24-.98-2.18-.17-5.31,2.24-8.58.99-1.35,1.69-2.7,2.3-3.89,1.29-2.49,2.3-4.46,5.07-5.04h.01c2.8-.43,4.44,1.05,6.52,2.92,1,.9,2.13,1.92,3.53,2.83,3.41,2.21,5.27,4.85,5.12,7.24-.09,1.41-.91,2.59-2.24,3.24-1.75.84-3.62.26-5.43-.29-1.53-.48-3.12-.97-4.68-.65l-.11-.22.04.23c-1.58.25-2.89,1.27-4.15,2.26-1.4,1.09-2.84,2.21-4.6,2.21ZM153.9,133.13c-2.54.54-3.51,2.41-4.74,4.79-.62,1.21-1.33,2.58-2.34,3.95-2.3,3.13-3.1,6.08-2.19,8.11.51,1.13,1.55,1.85,2.85,1.96,1.75.17,3.16-.93,4.64-2.09,1.31-1.02,2.67-2.08,4.37-2.35,1.74-.35,3.39.16,4.97.65,1.8.56,3.5,1.09,5.08.32,1.18-.57,1.9-1.6,1.97-2.84.14-2.21-1.65-4.7-4.91-6.81-1.43-.93-2.58-1.96-3.59-2.87-1.99-1.79-3.56-3.2-6.12-2.81Z"/>
          </g>
          <g>
            <path class="cls-5" d="M143.64,131.68c2.77,2.65,3.64,6.24,1.93,8.03-1.71,1.79-5.34,1.09-8.11-1.55-2.77-2.65-3.64-6.24-1.93-8.03,1.71-1.79,5.34-1.09,8.11,1.55Z"/>
            <path class="cls-2" d="M143,140.94c-.36,0-.73-.04-1.12-.11-1.58-.3-3.2-1.19-4.57-2.5-2.86-2.73-3.73-6.48-1.94-8.36,1.79-1.88,5.58-1.18,8.44,1.55,1.37,1.31,2.34,2.89,2.71,4.45.38,1.6.11,2.99-.77,3.91-.67.7-1.62,1.07-2.75,1.07ZM138.12,129.37c-.97,0-1.82.3-2.41.92-1.61,1.69-.75,5.14,1.92,7.69,1.31,1.25,2.85,2.09,4.34,2.38,1.45.28,2.67-.01,3.44-.82.77-.8,1-2.04.65-3.47-.35-1.47-1.27-2.97-2.58-4.22-1.69-1.61-3.7-2.48-5.36-2.48Z"/>
          </g>
          <g>
            <path class="cls-5" d="M163,128.16c-1.66,3.45-1.21,7.12,1.02,8.19s5.38-.86,7.04-4.31,1.21-7.12-1.02-8.19c-2.23-1.07-5.38.86-7.04,4.31Z"/>
            <path class="cls-2" d="M165.34,136.88c-.5,0-.98-.1-1.42-.32-1.15-.55-1.9-1.76-2.1-3.39-.2-1.59.15-3.41.97-5.12.82-1.71,2.03-3.11,3.4-3.95,1.4-.86,2.81-1.02,3.96-.47,2.34,1.13,2.85,4.95,1.13,8.51-1.39,2.89-3.82,4.74-5.94,4.74ZM163,128.16l.21.1c-.78,1.63-1.11,3.35-.93,4.86.18,1.46.83,2.54,1.84,3.02,2.1,1.02,5.12-.87,6.73-4.2,1.6-3.33,1.19-6.86-.91-7.88-1-.49-2.25-.32-3.5.45-1.29.79-2.44,2.12-3.22,3.75l-.21-.1Z"/>
          </g>
          <g>
            <path class="cls-5" d="M150.89,122.44c1.41,3.79.57,7.6-1.87,8.5-2.44.91-5.56-1.42-6.97-5.21-1.41-3.79-.57-7.6,1.87-8.5,2.44-.91,5.56,1.42,6.97,5.21Z"/>
            <path class="cls-2" d="M147.9,131.38c-.94,0-1.94-.37-2.9-1.09-1.35-1.01-2.48-2.6-3.18-4.47-1.45-3.9-.55-7.86,2.01-8.81,1.26-.47,2.71-.16,4.1.88,1.35,1.01,2.48,2.6,3.18,4.47h0c1.45,3.9.55,7.86-2.01,8.81-.38.14-.78.21-1.19.21ZM145.02,117.27c-.36,0-.7.06-1.03.18-2.32.86-3.09,4.54-1.73,8.2.67,1.79,1.74,3.3,3.02,4.26,1.25.93,2.55,1.22,3.65.81,2.31-.86,3.09-4.54,1.73-8.2h0c-.67-1.79-1.74-3.3-3.02-4.26-.88-.66-1.78-1-2.62-1Z"/>
          </g>
          <g>
            <path class="cls-5" d="M152.96,122.06c.02,4.04,2.14,7.31,4.75,7.3,2.61-.01,4.71-3.29,4.69-7.34s-2.14-7.31-4.75-7.3c-2.61,0-4.71,3.29-4.69,7.34Z"/>
            <path class="cls-2" d="M157.7,129.6c-1.34,0-2.59-.79-3.53-2.24-.92-1.42-1.43-3.3-1.44-5.3,0-2,.49-3.88,1.4-5.31.93-1.46,2.18-2.26,3.53-2.27h.01c2.73,0,4.96,3.38,4.97,7.54.02,4.17-2.19,7.56-4.93,7.57h-.01ZM157.66,114.96h-.01c-1.18,0-2.29.73-3.13,2.05-.86,1.35-1.33,3.14-1.32,5.05,0,1.91.49,3.7,1.36,5.04.85,1.3,1.96,2.02,3.13,2.02h.01c2.47,0,4.47-3.19,4.45-7.1-.02-3.9-2.03-7.06-4.5-7.06Z"/>
          </g>
        </g>
      </g>
      <g>
        <g class="cls-6">
          <path class="cls-5" d="M60.38,205.35c-2.43-.26-4.69,1.48-5.94,4.27-.12-.8-.32-1.62-.61-2.44-1.67-4.66-5.56-7.39-8.85-6.21-2.88,1.03-4.21,4.67-3.37,8.69-3.05-2.75-6.86-3.45-9.2-1.48-1.35,1.13-1.98,3-1.71,5.13.24,1.92,1.16,3.92,2.6,5.64.55.66,1.16,1.25,1.8,1.76-3.04-.33-5.68.73-6.69,2.97-1.37,3.06.94,6.98,5.26,8.92,1.95.88,4.04,1.2,5.86.93,1.08-.16,2.03-.55,2.78-1.1-.86,3.75-.37,6.89,1.41,8.75,1.31,1.37,3.14,1.87,5.04,1.39,2.37-.61,3.62-2.56,4.72-4.27.82-1.27,1.58-2.47,2.72-3.09l.09-.05c1.09-.65,2.52-.71,4.03-.77,1.99-.08,4.25-.17,5.96-1.8.04-.04.08-.08.12-.11,1.38-1.39,1.87-3.23,1.35-5.05-.7-2.47-3.16-4.48-6.83-5.63.61-.27,1.18-.65,1.71-1.15,1.46-1.39,2.52-3.61,2.8-6.23.51-4.71-1.7-8.69-5.04-9.05Z"/>
        </g>
        <g>
          <g>
            <path class="cls-5" d="M48.02,219.51c-3.48,2.12-2.4,5.9-3.87,10.74-2.15,7.11.94,10.42,4.27,9.57,3.33-.85,3.92-5.49,7.07-7.22,0,0,.02-.01.03-.02,0,0,.02-.01.03-.02,3.08-1.85,7.38,0,9.8-2.45,2.42-2.44,1.12-6.79-6.1-8.52-4.92-1.18-7.63-4.02-11.22-2.09Z"/>
            <path class="cls-2" d="M47.41,240.19c-1.04,0-2-.4-2.73-1.17-1.66-1.73-1.93-4.95-.75-8.84.48-1.6.69-3.11.87-4.44.38-2.78.68-4.97,3.1-6.44h.01c2.49-1.35,4.53-.5,7.12.57,1.24.51,2.65,1.1,4.27,1.49,3.95.95,6.59,2.81,7.25,5.12.39,1.36.01,2.75-1.03,3.8-1.37,1.38-3.32,1.46-5.22,1.54-1.6.06-3.26.13-4.63.95l-.06.03c-1.41.77-2.3,2.17-3.17,3.52-1.02,1.59-2.08,3.24-3.96,3.73-.36.09-.72.14-1.07.14ZM48.14,219.72c-2.22,1.35-2.51,3.45-2.87,6.1-.19,1.35-.4,2.87-.89,4.51-1.13,3.72-.89,6.77.64,8.37.86.9,2.07,1.22,3.34.9,1.7-.44,2.66-1.94,3.68-3.52.9-1.4,1.83-2.85,3.33-3.67,1.52-.91,3.24-.98,4.91-1.05,1.88-.08,3.66-.15,4.9-1.4.92-.93,1.25-2.14.91-3.34-.61-2.13-3.12-3.88-6.9-4.79-1.66-.4-3.08-.99-4.34-1.51-2.47-1.02-4.42-1.83-6.71-.6Z"/>
          </g>
          <g>
            <path class="cls-5" d="M37.98,221.78c3.5,1.57,5.51,4.67,4.5,6.92-1.01,2.25-4.67,2.81-8.16,1.24-3.5-1.57-5.51-4.67-4.5-6.92,1.01-2.25,4.67-2.81,8.16-1.24Z"/>
            <path class="cls-2" d="M38.25,231.08c-1.3,0-2.69-.31-4.03-.91-3.61-1.62-5.68-4.86-4.62-7.23,1.06-2.37,4.86-2.98,8.48-1.36h0c1.73.78,3.17,1.95,4.04,3.29.9,1.38,1.1,2.78.58,3.94-.52,1.17-1.71,1.95-3.33,2.19-.36.05-.74.08-1.12.08ZM34.04,221.13c-1.88,0-3.42.69-4,2-.96,2.13,1.01,5.1,4.38,6.61,1.65.74,3.38,1.02,4.88.79,1.46-.22,2.51-.9,2.97-1.92s.26-2.25-.54-3.49c-.83-1.27-2.19-2.38-3.84-3.12h0c-1.31-.59-2.65-.87-3.85-.87Z"/>
          </g>
          <g>
            <path class="cls-5" d="M55.05,212c-.41,3.81,1.24,7.12,3.7,7.38,2.46.27,4.78-2.6,5.2-6.41s-1.24-7.12-3.7-7.38c-2.46-.27-4.78,2.6-5.2,6.41Z"/>
            <path class="cls-2" d="M59.06,219.64c-.11,0-.23,0-.34-.02-2.58-.28-4.33-3.71-3.91-7.64.21-1.89.87-3.61,1.88-4.86,1.03-1.28,2.29-1.91,3.57-1.76,1.27.14,2.38,1.02,3.11,2.49.72,1.43,1,3.26.8,5.15-.41,3.76-2.67,6.64-5.12,6.64ZM59.93,205.81c-1.01,0-2.01.56-2.86,1.61-.95,1.18-1.59,2.81-1.78,4.61h0c-.4,3.67,1.16,6.87,3.49,7.12,2.31.25,4.54-2.53,4.94-6.21.2-1.8-.07-3.53-.75-4.89-.66-1.32-1.63-2.11-2.74-2.23-.1-.01-.2-.02-.29-.02Z"/>
          </g>
          <g>
            <path class="cls-5" d="M41.72,210.65c2.59,3.1,3.08,6.97,1.08,8.64-2,1.67-5.72.51-8.31-2.59-2.59-3.1-3.08-6.97-1.08-8.64,2-1.67,5.72-.51,8.31,2.59Z"/>
            <path class="cls-2" d="M40.54,220.29c-2,0-4.4-1.24-6.23-3.43-2.67-3.2-3.14-7.22-1.05-8.97,2.09-1.75,5.98-.58,8.65,2.62h0c1.28,1.53,2.1,3.3,2.31,4.98.21,1.71-.24,3.13-1.27,4-.66.55-1.5.81-2.42.81ZM35.69,207.54c-.81,0-1.55.23-2.13.71-1.89,1.59-1.4,5.31,1.11,8.31s6.09,4.14,7.98,2.56c.9-.75,1.29-2.02,1.1-3.57-.2-1.59-.98-3.27-2.21-4.73h0c-1.74-2.08-4-3.27-5.85-3.27Z"/>
          </g>
          <g>
            <path class="cls-5" d="M43.55,209.6c1.36,3.8,4.46,6.18,6.91,5.3,2.45-.88,3.34-4.68,1.97-8.48s-4.46-6.18-6.91-5.3c-2.45.88-3.34,4.68-1.97,8.48Z"/>
            <path class="cls-2" d="M49.41,215.32c-2.32,0-4.87-2.27-6.08-5.63h0c-.67-1.88-.84-3.83-.45-5.47.39-1.68,1.3-2.86,2.57-3.31,1.27-.46,2.72-.13,4.09.93,1.34,1.03,2.45,2.63,3.13,4.51,1.41,3.92.46,7.86-2.11,8.78-.37.13-.75.2-1.13.2ZM43.78,209.52c1.32,3.68,4.29,5.99,6.61,5.15,2.33-.83,3.15-4.5,1.83-8.18-.64-1.8-1.7-3.32-2.97-4.3-1.24-.95-2.53-1.25-3.64-.86-1.11.4-1.91,1.45-2.27,2.97-.36,1.56-.21,3.41.44,5.2h0Z"/>
          </g>
        </g>
      </g>
      <g>
        <g class="cls-6">
          <path class="cls-5" d="M43.12,64.47c2.25-.97,3.35-3.6,3.06-6.65.5.64,1.07,1.25,1.74,1.82,3.75,3.23,8.48,3.69,10.76,1.04,2-2.32,1.36-6.14-1.35-9.22,4.01.89,7.66-.39,8.74-3.25.62-1.65.24-3.59-1.04-5.31-1.15-1.55-2.95-2.84-5.05-3.62-.81-.3-1.62-.52-2.44-.64,2.81-1.21,4.58-3.44,4.35-5.88-.32-3.34-4.26-5.61-8.98-5.16-2.13.2-4.1.94-5.56,2.09-.86.68-1.49,1.47-1.88,2.33-1.1-3.69-3.08-6.18-5.54-6.91-1.81-.54-3.66-.08-5.07,1.28-1.76,1.7-1.89,4.01-2,6.05-.08,1.51-.16,2.93-.84,4.03l-.05.09c-.63,1.11-1.84,1.86-3.12,2.66-1.7,1.05-3.61,2.24-4.29,4.5-.02.05-.03.1-.04.16-.51,1.89-.03,3.73,1.32,5.06,1.83,1.8,4.96,2.33,8.72,1.53-.4.53-.71,1.15-.92,1.84-.58,1.93-.41,4.38.64,6.8,1.88,4.35,5.77,6.72,8.85,5.39Z"/>
        </g>
        <g>
          <g>
            <path class="cls-5" d="M46.89,46.05c1.98-3.56-.82-6.32-1.93-11.25-1.63-7.24-5.96-8.6-8.44-6.22s-.7,6.71-2.59,9.77c0,0-.01.02-.02.03,0,0-.01.02-.02.03-1.77,3.13-6.42,3.65-7.32,6.97-.9,3.32,2.38,6.45,9.51,4.4,4.86-1.4,8.63-.27,10.79-3.72Z"/>
            <path class="cls-2" d="M31.92,50.66c-1.96,0-3.55-.52-4.58-1.54-1.01-.99-1.37-2.38-.98-3.81.51-1.88,2.17-2.91,3.78-3.91,1.36-.85,2.77-1.72,3.56-3.11l.04-.07c.84-1.36.93-3.01,1.02-4.62.1-1.89.21-3.85,1.61-5.2,1.07-1.03,2.46-1.39,3.81-.98,2.29.69,4.12,3.35,5.02,7.32.37,1.63.93,3.04,1.43,4.29,1.04,2.6,1.86,4.66.48,7.13h0c-1.5,2.41-3.7,2.68-6.48,3.02-1.33.17-2.84.35-4.45.81-1.54.44-2.97.66-4.24.66ZM39.07,27.74c-.86,0-1.7.35-2.39,1.01-1.27,1.22-1.36,3-1.46,4.88-.09,1.66-.18,3.38-1.09,4.84-.88,1.55-2.34,2.45-3.75,3.33-1.6,1-3.11,1.94-3.57,3.63-.34,1.26-.03,2.48.85,3.35,1.58,1.56,4.63,1.83,8.36.76,1.64-.47,3.17-.66,4.52-.83,2.65-.33,4.75-.59,6.14-2.79,1.26-2.27.48-4.24-.51-6.72-.5-1.26-1.07-2.69-1.45-4.36-.86-3.79-2.57-6.33-4.69-6.97-.32-.1-.64-.14-.96-.14Z"/>
          </g>
          <g>
            <path class="cls-5" d="M54.5,39.12c-3.82.36-7.1-1.34-7.33-3.8s2.67-4.75,6.49-5.11c3.82-.36,7.1,1.34,7.33,3.8.23,2.46-2.67,4.75-6.49,5.11Z"/>
            <path class="cls-2" d="M53.49,39.41c-3.49,0-6.34-1.7-6.56-4.06-.25-2.58,2.76-4.99,6.7-5.37,1.89-.18,3.72.13,5.14.87,1.46.76,2.33,1.87,2.45,3.15.25,2.58-2.76,4.99-6.7,5.37h0c-.35.03-.69.05-1.03.05ZM54.68,30.41c-.33,0-.67.02-1,.05-3.68.35-6.49,2.52-6.27,4.85s3.4,3.94,7.07,3.58c3.68-.35,6.49-2.52,6.27-4.85-.1-1.11-.88-2.09-2.19-2.77-1.09-.57-2.44-.86-3.88-.86Z"/>
          </g>
          <g>
            <path class="cls-5" d="M44.48,56.05c-1.52-3.52-4.59-5.58-6.86-4.6s-2.88,4.63-1.36,8.14,4.59,5.58,6.86,4.6c2.27-.98,2.88-4.63,1.36-8.14Z"/>
            <path class="cls-2" d="M41.91,64.68c-.84,0-1.75-.3-2.63-.9-1.33-.89-2.48-2.35-3.23-4.09s-1.02-3.57-.76-5.16c.27-1.62,1.06-2.79,2.24-3.3,2.38-1.03,5.6,1.09,7.17,4.72h0c1.57,3.63.9,7.43-1.48,8.46-.41.18-.85.26-1.3.26ZM38.83,51.45c-.39,0-.76.07-1.12.23-1.02.44-1.72,1.49-1.96,2.94-.25,1.49,0,3.23.73,4.89.72,1.66,1.8,3.04,3.06,3.88,1.23.82,2.46,1.03,3.48.59,2.14-.93,2.7-4.44,1.23-7.83h0c-1.22-2.83-3.47-4.7-5.43-4.7Z"/>
          </g>
          <g>
            <path class="cls-5" d="M56.74,50.65c-3.79-1.42-6.11-4.54-5.2-6.98.91-2.44,4.72-3.27,8.51-1.85,3.79,1.42,6.11,4.54,5.2,6.98-.91,2.44-4.72,3.27-8.51,1.85Z"/>
            <path class="cls-2" d="M60.38,51.57c-1.18,0-2.45-.23-3.72-.7-1.87-.7-3.46-1.83-4.47-3.19-1.03-1.39-1.34-2.84-.87-4.1.47-1.26,1.66-2.15,3.35-2.52,1.65-.36,3.59-.17,5.46.53,1.87.7,3.46,1.83,4.47,3.19,1.03,1.39,1.34,2.84.87,4.1-.65,1.73-2.65,2.69-5.09,2.69ZM56.39,41.36c-.56,0-1.11.06-1.63.17-1.53.33-2.59,1.12-3,2.22-.41,1.1-.13,2.4.81,3.65.96,1.28,2.47,2.36,4.25,3.03,3.66,1.37,7.34.6,8.2-1.71.41-1.1.13-2.4-.81-3.65-.96-1.28-2.47-2.36-4.25-3.03-1.2-.45-2.42-.68-3.57-.68Z"/>
          </g>
          <g>
            <path class="cls-5" d="M55.66,52.47c-3.06-2.64-6.92-3.17-8.62-1.2-1.7,1.98-.59,5.71,2.47,8.35,3.06,2.64,6.92,3.17,8.62,1.2,1.7-1.98.59-5.71-2.47-8.35Z"/>
            <path class="cls-2" d="M55.19,62.24c-1.82,0-3.98-.84-5.83-2.44-3.16-2.72-4.28-6.61-2.5-8.68,1.78-2.07,5.8-1.55,8.96,1.17h0c1.52,1.3,2.61,2.92,3.09,4.54.49,1.66.28,3.13-.6,4.15-.73.85-1.85,1.27-3.12,1.27ZM49.98,50.31c-1.14,0-2.12.36-2.77,1.11-1.61,1.87-.51,5.47,2.45,8.02,2.96,2.55,6.68,3.09,8.29,1.22.77-.89.95-2.21.5-3.71-.45-1.53-1.5-3.06-2.95-4.31h0c-1.77-1.53-3.82-2.33-5.52-2.33Z"/>
          </g>
        </g>
      </g>
      <g>
        <g class="cls-6">
          <path class="cls-5" d="M82.48,80.81c.59,2.38,3.01,3.89,6.06,4.1-.71.39-1.41.86-2.08,1.42-3.8,3.18-5.02,7.77-2.77,10.45,1.96,2.35,5.84,2.34,9.32.16-1.53,3.81-.87,7.63,1.79,9.15,1.53.88,3.5.82,5.41-.16,1.72-.89,3.28-2.45,4.39-4.39.43-.75.77-1.52,1.03-2.3.73,2.97,2.65,5.08,5.09,5.25,3.35.23,6.23-3.29,6.55-8.02.15-2.14-.26-4.2-1.15-5.82-.53-.96-1.21-1.71-1.99-2.23,3.82-.49,6.6-2.04,7.72-4.34.83-1.7.67-3.6-.44-5.21-1.39-2.01-3.65-2.51-5.64-2.95-1.47-.33-2.87-.63-3.84-1.48l-.08-.07c-.99-.8-1.54-2.12-2.11-3.51-.76-1.84-1.63-3.93-3.74-4.97-.05-.02-.1-.05-.15-.07-1.78-.81-3.68-.64-5.21.48-2.07,1.51-3.11,4.52-2.93,8.36-.46-.48-1.02-.89-1.67-1.2-1.81-.89-4.25-1.12-6.81-.48-4.6,1.15-7.57,4.6-6.75,7.85Z"/>
        </g>
        <g>
          <g>
            <path class="cls-5" d="M100.05,87.52c3.19,2.54,6.37.22,11.42-.08,7.41-.43,9.46-4.48,7.51-7.31s-6.51-1.78-9.22-4.14c0,0-.02-.01-.03-.02,0,0-.02-.01-.03-.02-2.8-2.25-2.56-6.93-5.69-8.35-3.13-1.43-6.75,1.3-5.89,8.67.59,5.03-1.14,8.55,1.92,11.26Z"/>
            <path class="cls-2" d="M103.42,88.94c-1.22,0-2.36-.31-3.52-1.23h0c-2.12-1.88-2.03-4.09-1.92-6.89.05-1.34.12-2.86-.08-4.52-.47-4.03.36-7.16,2.3-8.57,1.14-.83,2.58-.96,3.92-.35,1.77.81,2.52,2.62,3.24,4.37.61,1.48,1.25,3.01,2.49,4.02l.05.04c1.21,1.06,2.83,1.42,4.4,1.76,1.85.41,3.76.83,4.86,2.43.84,1.22.97,2.65.34,3.92-1.05,2.15-3.98,3.52-8.03,3.76-1.67.1-3.15.42-4.46.71-1.31.29-2.48.55-3.6.55ZM100.2,87.34c2.04,1.62,4.1,1.16,6.71.59,1.33-.29,2.83-.62,4.54-.72,3.88-.23,6.66-1.5,7.64-3.5.54-1.11.43-2.37-.31-3.44-1-1.45-2.74-1.83-4.58-2.24-1.62-.36-3.3-.73-4.6-1.86-1.38-1.12-2.04-2.71-2.68-4.24-.72-1.74-1.4-3.39-3-4.12-1.19-.54-2.44-.43-3.45.3-1.79,1.31-2.56,4.27-2.11,8.13.2,1.7.14,3.24.08,4.59-.11,2.67-.19,4.78,1.75,6.51Z"/>
          </g>
          <g>
            <path class="cls-5" d="M105.64,96.16c.26-3.82,2.48-6.79,4.94-6.62s4.25,3.41,3.99,7.23c-.26,3.82-2.48,6.79-4.94,6.62-2.46-.17-4.25-3.41-3.99-7.23Z"/>
            <path class="cls-2" d="M109.83,103.63c-.07,0-.14,0-.22,0-1.28-.09-2.41-.93-3.21-2.37-.77-1.41-1.13-3.22-1-5.12l.24.02-.24-.02c.27-3.95,2.6-7,5.19-6.83,1.28.09,2.41.93,3.21,2.37.77,1.4,1.13,3.22,1,5.12-.26,3.84-2.47,6.84-4.98,6.84ZM105.88,96.17c-.12,1.8.21,3.53.94,4.85.71,1.29,1.72,2.05,2.82,2.12,2.33.14,4.43-2.71,4.69-6.4.12-1.8-.21-3.53-.94-4.85-.71-1.29-1.72-2.05-2.82-2.12-2.35-.17-4.43,2.71-4.69,6.4h0Z"/>
          </g>
          <g>
            <path class="cls-5" d="M90.57,83.52c3.72-.93,6.25-3.62,5.65-6.02s-4.1-3.59-7.82-2.66-6.25,3.62-5.65,6.02c.6,2.4,4.1,3.59,7.82,2.66Z"/>
            <path class="cls-2" d="M88.09,84.07c-2.79,0-5.08-1.2-5.56-3.15-.31-1.24.14-2.58,1.26-3.78,1.1-1.17,2.72-2.07,4.56-2.53,3.84-.96,7.47.32,8.1,2.83.63,2.52-1.98,5.35-5.82,6.31-.87.22-1.72.32-2.54.32ZM90.91,74.76c-.78,0-1.61.1-2.45.31-1.75.44-3.29,1.29-4.33,2.39-1.01,1.08-1.42,2.26-1.15,3.34.57,2.27,3.94,3.38,7.53,2.49,3.59-.89,6.04-3.47,5.48-5.73-.43-1.74-2.52-2.8-5.08-2.8Z"/>
          </g>
          <g>
            <path class="cls-5" d="M93.9,96.49c2.01-3.5,5.48-5.29,7.74-4,2.26,1.3,2.46,5.19.45,8.7-2.01,3.5-5.48,5.29-7.74,4-2.26-1.3-2.46-5.19-.45-8.7Z"/>
            <path class="cls-2" d="M96,105.85c-.64,0-1.24-.15-1.77-.46-2.37-1.36-2.61-5.41-.53-9.02h0c2.08-3.61,5.69-5.44,8.06-4.08,1.17.67,1.85,1.99,1.94,3.71.09,1.69-.41,3.57-1.41,5.31-1,1.73-2.37,3.12-3.87,3.89-.84.43-1.66.65-2.42.65ZM94.11,96.61h0c-1.94,3.39-1.78,7.14.36,8.37,1.02.59,2.35.51,3.73-.2,1.42-.73,2.73-2.05,3.68-3.71.95-1.66,1.43-3.45,1.35-5.04-.08-1.56-.69-2.74-1.71-3.33-2.14-1.23-5.47.52-7.41,3.91Z"/>
          </g>
          <g>
            <path class="cls-5" d="M92.29,95.13c3.1-2.59,4.26-6.32,2.58-8.31-1.67-2-5.54-1.51-8.64,1.08s-4.26,6.32-2.58,8.31c1.67,2,5.54,1.51,8.64-1.08Z"/>
            <path class="cls-2" d="M86.65,97.68c-1.35,0-2.46-.46-3.18-1.32-.86-1.03-1.06-2.51-.54-4.16.5-1.61,1.62-3.21,3.16-4.49,3.19-2.67,7.22-3.14,8.97-1.05,1.75,2.1.58,5.97-2.61,8.65h0c-1.53,1.28-3.3,2.11-4.98,2.32-.28.03-.55.05-.81.05ZM91.86,85.82c-1.69,0-3.71.78-5.48,2.26-1.46,1.23-2.53,2.74-3.01,4.27-.46,1.49-.3,2.81.45,3.71.76.9,2.02,1.29,3.57,1.1,1.59-.2,3.27-.98,4.73-2.21h0c2.99-2.51,4.14-6.09,2.55-7.98-.65-.78-1.66-1.15-2.83-1.15Z"/>
          </g>
        </g>
      </g>
      <g>
        <g class="cls-6">
          <path class="cls-5" d="M45.78,109.81c-1.91,1.53-2.28,4.36-1.19,7.22-.65-.48-1.37-.93-2.16-1.3-4.48-2.12-9.15-1.31-10.65,1.85-1.31,2.77.32,6.28,3.75,8.54-4.1.2-7.29,2.4-7.56,5.45-.16,1.76.72,3.53,2.41,4.85,1.52,1.19,3.59,1.95,5.82,2.16.86.08,1.7.07,2.52-.02-2.39,1.91-3.51,4.53-2.64,6.82,1.19,3.14,5.6,4.28,10.03,2.6,2-.76,3.71-2,4.81-3.48.65-.88,1.05-1.82,1.2-2.74,2.04,3.26,4.61,5.14,7.17,5.2,1.89.04,3.55-.9,4.55-2.58,1.25-2.1.76-4.36.32-6.36-.32-1.48-.62-2.87-.26-4.11l.03-.1c.31-1.23,1.28-2.28,2.31-3.39,1.36-1.46,2.89-3.12,2.95-5.48,0-.05,0-.11,0-.16,0-1.96-.96-3.61-2.61-4.53-2.24-1.25-5.4-.94-8.81.83.24-.62.38-1.3.4-2.02.05-2.01-.76-4.33-2.41-6.39-2.96-3.7-7.34-4.95-9.96-2.85Z"/>
          <path class="cls-2" d="M42.07,148.97c-2.93,0-5.36-1.27-6.21-3.53-.82-2.15,0-4.63,2.15-6.61-.61.03-1.22.02-1.83-.04-2.28-.21-4.39-.99-5.95-2.21-1.76-1.37-2.67-3.21-2.5-5.05.27-2.96,3.16-5.21,7.12-5.61-3.21-2.36-4.55-5.77-3.28-8.45.76-1.6,2.31-2.68,4.38-3.04,2.04-.35,4.38.03,6.58,1.08.55.26,1.09.56,1.6.9-.84-2.79-.29-5.35,1.5-6.79h0c1.33-1.07,3.13-1.35,5.06-.79,1.91.55,3.76,1.85,5.23,3.68,1.62,2.02,2.52,4.41,2.46,6.54-.01.54-.09,1.05-.23,1.54,3.32-1.59,6.33-1.8,8.52-.57,1.73.96,2.72,2.69,2.73,4.74v.17c-.06,2.45-1.63,4.14-3.01,5.63-1.01,1.09-1.96,2.11-2.25,3.29l-.03.1c-.35,1.19-.05,2.55.26,4,.44,2.04.95,4.35-.35,6.53-1.04,1.76-2.79,2.74-4.76,2.69-2.52-.06-5.01-1.77-7.06-4.83-.21.78-.59,1.56-1.12,2.27-1.12,1.52-2.87,2.79-4.91,3.56-1.41.53-2.81.79-4.12.79ZM39.51,138.21l-.64.51c-2.39,1.91-3.37,4.42-2.57,6.55,1.14,3.01,5.41,4.1,9.72,2.46,1.96-.74,3.63-1.95,4.7-3.4.61-.83,1.01-1.74,1.15-2.64l.1-.62.34.54c2.02,3.22,4.5,5.03,6.98,5.09,1.81.04,3.38-.85,4.34-2.46,1.2-2.02.72-4.24.3-6.19-.33-1.51-.64-2.93-.25-4.23l.03-.1c.32-1.29,1.31-2.35,2.36-3.48,1.33-1.44,2.83-3.06,2.89-5.33v-.16c0-1.87-.91-3.44-2.48-4.32-2.17-1.21-5.22-.91-8.59.83l-.56.29.23-.59c.24-.6.36-1.25.38-1.94.05-2.03-.81-4.3-2.36-6.23-1.4-1.75-3.17-3-4.99-3.52-1.78-.51-3.43-.26-4.64.71h0c-1.78,1.43-2.21,4.09-1.12,6.95l.29.76-.65-.49c-.66-.49-1.37-.92-2.12-1.28-2.12-1.01-4.36-1.37-6.3-1.04-1.91.33-3.35,1.32-4.04,2.77-1.24,2.62.27,6,3.66,8.24l.61.4-.73.04c-4.06.2-7.08,2.35-7.34,5.23-.15,1.68.69,3.37,2.32,4.64,1.49,1.16,3.51,1.91,5.7,2.11.83.08,1.66.07,2.47-.02l.81-.09Z"/>
        </g>
        <g>
          <path class="cls-5" d="M44.91,108.89c-1.91,1.53-2.28,4.36-1.19,7.22-.65-.48-1.37-.93-2.16-1.3-4.48-2.12-9.15-1.31-10.65,1.85-1.31,2.77.32,6.28,3.75,8.54-4.1.2-7.29,2.4-7.56,5.45-.16,1.76.72,3.53,2.41,4.85,1.52,1.19,3.59,1.95,5.82,2.16.86.08,1.7.07,2.52-.02-2.39,1.91-3.51,4.53-2.64,6.82,1.19,3.14,5.6,4.28,10.03,2.6,2-.76,3.71-2,4.81-3.48.65-.88,1.05-1.82,1.2-2.74,2.04,3.26,4.61,5.14,7.17,5.2,1.89.04,3.55-.9,4.55-2.58,1.25-2.1.76-4.36.32-6.36-.32-1.48-.62-2.87-.26-4.11l.03-.1c.31-1.23,1.28-2.28,2.31-3.39,1.36-1.46,2.89-3.12,2.95-5.48,0-.05,0-.11,0-.16,0-1.96-.96-3.61-2.61-4.53-2.24-1.25-5.4-.94-8.81.83.24-.62.38-1.3.4-2.02.05-2.01-.76-4.33-2.41-6.39-2.96-3.7-7.34-4.95-9.96-2.85Z"/>
          <path class="cls-2" d="M41.19,148.05c-.78,0-1.54-.09-2.25-.28-1.95-.51-3.36-1.66-3.96-3.25-.82-2.15,0-4.63,2.15-6.61-.61.03-1.22.02-1.83-.04-2.28-.21-4.39-.99-5.95-2.21-1.76-1.37-2.67-3.21-2.5-5.05.27-2.96,3.16-5.21,7.12-5.62-3.21-2.36-4.55-5.76-3.28-8.45,1.55-3.28,6.37-4.14,10.97-1.96.55.26,1.09.56,1.6.9-.84-2.79-.29-5.35,1.5-6.79h0c1.33-1.06,3.13-1.35,5.06-.79,1.91.55,3.76,1.85,5.23,3.68,1.62,2.02,2.52,4.41,2.46,6.54-.01.54-.09,1.05-.23,1.54,3.32-1.59,6.33-1.8,8.52-.57,1.73.96,2.72,2.69,2.73,4.74v.17c-.06,2.45-1.63,4.14-3.01,5.64-1.01,1.08-1.95,2.11-2.25,3.29l-.03.1c-.35,1.19-.05,2.55.26,4,.44,2.04.94,4.35-.35,6.53-1.02,1.72-2.7,2.69-4.62,2.69-.04,0-.09,0-.13,0-2.52-.06-5.01-1.77-7.06-4.83-.21.78-.59,1.56-1.12,2.27-1.12,1.52-2.87,2.79-4.91,3.56-1.38.52-2.79.79-4.13.79ZM38.63,137.29l-.64.51c-2.39,1.91-3.37,4.42-2.57,6.55.55,1.44,1.84,2.5,3.64,2.96,1.83.47,3.99.3,6.09-.5,1.96-.74,3.63-1.95,4.7-3.4.61-.83,1.01-1.74,1.15-2.64l.1-.62.33.54c2.02,3.22,4.5,5.03,6.98,5.09,1.81.04,3.38-.85,4.34-2.46,1.2-2.02.72-4.24.3-6.19-.33-1.51-.64-2.93-.25-4.23l.03-.09c.33-1.29,1.31-2.36,2.36-3.49,1.33-1.43,2.83-3.05,2.89-5.32v-.16c0-1.87-.91-3.44-2.48-4.32-2.16-1.21-5.21-.91-8.59.83l-.56.29.23-.59c.23-.6.36-1.25.38-1.94.05-2.03-.81-4.3-2.36-6.23-1.4-1.75-3.17-3-4.99-3.52-1.78-.51-3.43-.26-4.64.71h0c-1.78,1.43-2.21,4.09-1.12,6.95l.29.76-.65-.49c-.66-.49-1.37-.92-2.12-1.28-4.36-2.06-8.9-1.3-10.33,1.74-1.24,2.62.27,6,3.66,8.24l.61.4-.73.04c-4.06.2-7.08,2.35-7.34,5.24-.15,1.68.69,3.37,2.32,4.64,1.49,1.16,3.51,1.91,5.7,2.11.82.08,1.66.07,2.47-.02l.81-.09Z"/>
        </g>
        <g>
          <g>
            <path class="cls-5" d="M47.03,128.57c-.97,3.96,2.46,5.87,4.84,10.34,3.49,6.55,8.02,6.72,9.78,3.76,1.76-2.95-1.1-6.65-.09-10.1,0-.01,0-.02,0-.03,0-.01,0-.02,0-.03.88-3.48,5.22-5.22,5.21-8.66-.01-3.44-4-5.59-10.34-1.73-4.32,2.64-8.25,2.54-9.42,6.44Z"/>
            <path class="cls-2" d="M58.53,144.75s-.06,0-.09,0c-2.39-.06-4.86-2.14-6.77-5.73-.79-1.47-1.7-2.69-2.51-3.76-1.69-2.24-3.02-4-2.35-6.75h0c.82-2.72,2.86-3.56,5.45-4.63,1.24-.51,2.65-1.09,4.07-1.96,3.47-2.12,6.65-2.66,8.74-1.49,1.24.69,1.95,1.94,1.95,3.42,0,1.94-1.32,3.38-2.61,4.77-1.09,1.18-2.22,2.39-2.61,3.94l-.02.06c-.46,1.55-.1,3.17.24,4.74.4,1.85.82,3.77-.17,5.44-.74,1.25-1.95,1.95-3.33,1.95ZM47.26,128.63c-.62,2.53.66,4.21,2.27,6.34.82,1.08,1.75,2.31,2.55,3.82,1.83,3.43,4.15,5.43,6.37,5.48.03,0,.05,0,.08,0,1.21,0,2.27-.62,2.92-1.72.9-1.51.52-3.25.12-5.09-.35-1.62-.72-3.31-.23-4.96.44-1.72,1.6-2.99,2.73-4.21,1.28-1.38,2.49-2.69,2.48-4.45,0-1.31-.63-2.4-1.71-3.01-1.94-1.08-4.95-.54-8.27,1.48-1.46.89-2.88,1.48-4.14,1.99-2.47,1.02-4.43,1.82-5.18,4.31Z"/>
          </g>
          <g>
            <path class="cls-5" d="M41.53,137.26c3.58-1.36,7.2-.59,8.07,1.72s-1.32,5.28-4.9,6.64c-3.58,1.36-7.2.59-8.07-1.72-.88-2.31,1.32-5.28,4.9-6.64Z"/>
            <path class="cls-2" d="M41.2,146.53c-.56,0-1.09-.05-1.6-.16-1.61-.34-2.74-1.19-3.19-2.39s-.17-2.58.81-3.9c.95-1.29,2.46-2.37,4.23-3.05,1.77-.67,3.61-.86,5.19-.53,1.61.34,2.74,1.19,3.19,2.39s.17,2.58-.81,3.9c-.95,1.29-2.45,2.37-4.23,3.04-1.2.46-2.43.69-3.58.69ZM45.02,136.82c-1.1,0-2.27.22-3.41.66h0c-1.69.64-3.12,1.67-4.02,2.88-.88,1.19-1.14,2.41-.75,3.45.39,1.04,1.41,1.78,2.85,2.09,1.48.32,3.23.14,4.92-.5,1.69-.64,3.12-1.67,4.02-2.88.88-1.19,1.14-2.41.75-3.45s-1.41-1.78-2.85-2.09c-.48-.1-.98-.15-1.5-.15Z"/>
          </g>
          <g>
            <path class="cls-5" d="M46.71,118.28c2.4,2.99,5.9,4.16,7.83,2.62s1.55-5.22-.85-8.21-5.9-4.16-7.83-2.62c-1.93,1.54-1.55,5.22.85,8.21Z"/>
            <path class="cls-2" d="M52.47,121.81c-1.92,0-4.22-1.23-5.95-3.38h0c-2.47-3.09-2.84-6.92-.81-8.55,1-.8,2.4-.95,3.96-.43,1.52.51,3.01,1.61,4.2,3.09,2.47,3.09,2.84,6.92.81,8.55-.61.49-1.38.73-2.22.73ZM46.89,118.13c2.31,2.88,5.68,4.04,7.5,2.58,1.82-1.46,1.43-5-.88-7.88-1.13-1.41-2.54-2.45-3.98-2.93-1.4-.47-2.65-.34-3.52.35-1.82,1.46-1.43,5,.88,7.88h0Z"/>
          </g>
          <g>
            <path class="cls-5" d="M36.32,126.74c4.03.36,7.1,2.76,6.86,5.36-.23,2.59-3.69,4.4-7.71,4.04-4.03-.36-7.1-2.76-6.86-5.36.23-2.59,3.69-4.4,7.71-4.04Z"/>
            <path class="cls-2" d="M36.48,136.42c-.34,0-.69-.02-1.04-.05-1.99-.18-3.82-.85-5.15-1.89-1.36-1.06-2.04-2.39-1.92-3.72.25-2.72,3.82-4.62,7.97-4.25h0c4.15.38,7.32,2.89,7.08,5.62-.23,2.49-3.24,4.3-6.93,4.3ZM35.29,126.93c-3.44,0-6.25,1.62-6.45,3.87-.11,1.17.51,2.35,1.74,3.31,1.26.98,3,1.62,4.9,1.79,3.89.36,7.23-1.36,7.46-3.82.22-2.46-2.76-4.75-6.65-5.1h0c-.34-.03-.68-.05-1-.05Z"/>
          </g>
          <g>
            <path class="cls-5" d="M36.87,124.7c3.65,1.73,7.52,1.23,8.63-1.13,1.12-2.35-.94-5.67-4.59-7.4-3.65-1.73-7.52-1.23-8.63,1.13-1.12,2.35.94,5.67,4.59,7.4Z"/>
            <path class="cls-2" d="M41.16,125.96c-1.38,0-2.9-.34-4.39-1.05h0c-3.76-1.78-5.87-5.24-4.7-7.71.58-1.21,1.84-2.01,3.55-2.23,1.68-.22,3.59.13,5.4.99,1.81.86,3.29,2.12,4.18,3.55.91,1.47,1.1,2.95.52,4.16-.71,1.49-2.46,2.29-4.56,2.29ZM36.97,124.48c3.53,1.67,7.26,1.22,8.32-1.02.5-1.06.33-2.38-.49-3.71-.84-1.36-2.26-2.56-3.98-3.38-1.73-.82-3.55-1.16-5.14-.95-1.55.2-2.68.9-3.18,1.96-1.06,2.23.95,5.41,4.48,7.08h0Z"/>
          </g>
        </g>
      </g>
      <g>
        <g class="cls-6">
          <path class="cls-5" d="M148.14,207.7c-1.91,1.53-2.28,4.36-1.19,7.22-.65-.48-1.37-.93-2.16-1.3-4.48-2.12-9.15-1.31-10.65,1.85-1.31,2.77.32,6.28,3.75,8.54-4.1.2-7.29,2.4-7.56,5.45-.16,1.76.72,3.53,2.41,4.85,1.52,1.19,3.59,1.95,5.82,2.16.86.08,1.7.07,2.52-.02-2.39,1.91-3.51,4.53-2.64,6.82,1.19,3.14,5.6,4.28,10.03,2.6,2-.76,3.71-2,4.81-3.48.65-.88,1.05-1.82,1.2-2.74,2.04,3.26,4.61,5.14,7.17,5.2,1.89.04,3.55-.9,4.55-2.58,1.25-2.1.76-4.36.32-6.36-.32-1.48-.62-2.87-.26-4.11l.03-.1c.31-1.23,1.28-2.28,2.31-3.39,1.36-1.46,2.89-3.12,2.95-5.48,0-.05,0-.11,0-.16,0-1.96-.96-3.61-2.61-4.53-2.24-1.25-5.4-.94-8.81.83.24-.62.38-1.3.4-2.02.05-2.01-.76-4.33-2.41-6.39-2.96-3.7-7.34-4.95-9.96-2.85Z"/>
          <path class="cls-2" d="M144.43,246.86c-2.93,0-5.36-1.27-6.21-3.53-.82-2.15,0-4.63,2.15-6.61-.61.03-1.22.02-1.83-.04-2.28-.21-4.39-.99-5.95-2.21-1.76-1.37-2.67-3.21-2.5-5.05.27-2.96,3.16-5.21,7.12-5.61-3.21-2.36-4.55-5.77-3.28-8.45,1.55-3.28,6.37-4.14,10.97-1.96.55.26,1.09.56,1.6.9-.84-2.79-.29-5.35,1.5-6.79h0c2.72-2.18,7.25-.91,10.29,2.89,1.62,2.02,2.52,4.41,2.46,6.54-.01.54-.09,1.05-.23,1.54,3.32-1.59,6.33-1.8,8.52-.57,1.73.97,2.72,2.69,2.73,4.74v.17c-.06,2.45-1.63,4.14-3.01,5.63-1.01,1.09-1.95,2.11-2.25,3.29l-.03.1c-.35,1.19-.05,2.55.26,4,.44,2.04.94,4.35-.35,6.53-1.04,1.76-2.78,2.71-4.76,2.69-2.52-.06-5.01-1.77-7.06-4.83-.21.78-.59,1.56-1.12,2.27-1.12,1.52-2.87,2.79-4.91,3.56-1.41.53-2.81.79-4.12.79ZM141.87,236.1l-.64.51c-2.39,1.91-3.37,4.42-2.57,6.55,1.14,3.02,5.41,4.1,9.72,2.46,1.96-.74,3.63-1.95,4.7-3.4.61-.83,1.01-1.74,1.15-2.64l.1-.62.34.54c2.02,3.22,4.49,5.03,6.98,5.09,1.81.07,3.38-.85,4.34-2.46,1.2-2.02.72-4.24.3-6.19-.33-1.51-.64-2.93-.25-4.23l.03-.1c.33-1.29,1.31-2.36,2.36-3.49,1.33-1.43,2.83-3.05,2.89-5.32v-.16c0-1.87-.91-3.45-2.48-4.33-2.17-1.21-5.22-.91-8.59.83l-.56.29.23-.59c.23-.6.36-1.25.38-1.94.05-2.03-.81-4.3-2.36-6.23-2.88-3.6-7.11-4.83-9.63-2.82h0c-1.78,1.42-2.21,4.09-1.12,6.95l.29.76-.65-.49c-.66-.49-1.37-.92-2.12-1.28-4.36-2.06-8.9-1.3-10.33,1.74-1.24,2.62.27,6,3.66,8.24l.61.4-.73.04c-4.06.2-7.08,2.35-7.34,5.23-.15,1.68.69,3.37,2.32,4.64,1.49,1.16,3.51,1.91,5.7,2.11.83.08,1.66.07,2.47-.02l.81-.09Z"/>
        </g>
        <g>
          <path class="cls-5" d="M147.27,206.78c-1.91,1.53-2.28,4.36-1.19,7.22-.65-.48-1.37-.93-2.16-1.3-4.48-2.12-9.15-1.31-10.65,1.85-1.31,2.77.32,6.28,3.75,8.54-4.1.2-7.29,2.4-7.56,5.45-.16,1.76.72,3.53,2.41,4.85,1.52,1.19,3.59,1.95,5.82,2.16.86.08,1.7.07,2.52-.02-2.39,1.91-3.51,4.53-2.64,6.82,1.19,3.14,5.6,4.28,10.03,2.6,2-.76,3.71-2,4.81-3.48.65-.88,1.05-1.82,1.2-2.74,2.04,3.26,4.61,5.14,7.17,5.2,1.89.04,3.55-.9,4.55-2.58,1.25-2.1.76-4.36.32-6.36-.32-1.48-.62-2.87-.26-4.11l.03-.1c.31-1.23,1.28-2.28,2.31-3.39,1.36-1.46,2.89-3.12,2.95-5.48,0-.05,0-.11,0-.16,0-1.96-.96-3.61-2.61-4.53-2.24-1.25-5.4-.94-8.81.83.24-.62.38-1.3.4-2.02.05-2.01-.76-4.33-2.41-6.39-2.96-3.7-7.34-4.95-9.96-2.85Z"/>
          <path class="cls-2" d="M143.55,245.94c-2.93,0-5.36-1.27-6.21-3.53-.82-2.15,0-4.63,2.15-6.61-.61.03-1.22.02-1.83-.04-2.28-.21-4.39-.99-5.95-2.21-1.76-1.37-2.67-3.21-2.5-5.05.27-2.96,3.16-5.21,7.12-5.61-3.21-2.36-4.55-5.77-3.28-8.45.76-1.6,2.31-2.68,4.38-3.04,2.04-.35,4.38.03,6.58,1.08.55.26,1.09.56,1.6.9-.84-2.79-.29-5.35,1.5-6.79h0c2.72-2.18,7.24-.91,10.29,2.89,1.62,2.02,2.52,4.41,2.46,6.54-.01.54-.09,1.05-.23,1.54,3.32-1.59,6.33-1.8,8.52-.57,1.73.96,2.72,2.69,2.73,4.74v.17c-.06,2.45-1.63,4.14-3.01,5.63-1.01,1.09-1.96,2.11-2.25,3.29l-.03.1c-.35,1.19-.05,2.55.26,4,.44,2.04.94,4.35-.35,6.53-1.04,1.76-2.8,2.73-4.76,2.69-2.52-.06-5.01-1.77-7.06-4.83-.21.78-.59,1.56-1.12,2.27-1.12,1.52-2.87,2.79-4.91,3.56-1.41.53-2.81.79-4.12.79ZM140.99,235.18l-.64.51c-2.39,1.91-3.37,4.42-2.57,6.55,1.14,3.02,5.41,4.1,9.72,2.46,1.96-.74,3.63-1.95,4.7-3.4.61-.83,1.01-1.74,1.15-2.64l.1-.62.34.54c2.02,3.22,4.49,5.03,6.98,5.09,1.82.05,3.38-.85,4.34-2.46,1.2-2.02.72-4.23.3-6.19-.33-1.51-.64-2.93-.25-4.23l.03-.1c.32-1.29,1.31-2.36,2.36-3.49,1.33-1.43,2.83-3.06,2.89-5.32v-.16c0-1.87-.91-3.44-2.48-4.32-2.16-1.21-5.22-.91-8.59.83l-.56.29.23-.59c.24-.6.36-1.25.38-1.94.05-2.03-.81-4.3-2.36-6.23-2.88-3.6-7.11-4.83-9.63-2.82l-.15-.18.15.18c-1.78,1.43-2.21,4.09-1.12,6.95l.29.76-.65-.49c-.66-.49-1.37-.92-2.12-1.28-2.12-1.01-4.36-1.37-6.3-1.04-1.91.33-3.34,1.32-4.03,2.77-1.24,2.62.27,6,3.66,8.24l.61.4-.73.04c-4.06.2-7.08,2.35-7.34,5.23-.15,1.68.69,3.37,2.32,4.64,1.49,1.16,3.51,1.91,5.7,2.11.83.07,1.66.07,2.47-.02l.81-.09Z"/>
        </g>
        <g>
          <g>
            <path class="cls-5" d="M149.39,226.46c-.97,3.96,2.46,5.87,4.84,10.34,3.49,6.55,8.02,6.72,9.78,3.76,1.76-2.95-1.1-6.65-.09-10.1,0-.01,0-.02,0-.03,0-.01,0-.02,0-.03.88-3.48,5.22-5.22,5.21-8.66-.01-3.44-4-5.59-10.34-1.73-4.32,2.64-8.25,2.54-9.42,6.44Z"/>
            <path class="cls-2" d="M160.89,242.64s-.06,0-.09,0c-2.39-.06-4.86-2.14-6.77-5.73-.79-1.47-1.7-2.69-2.51-3.76-1.69-2.23-3.02-4-2.35-6.75h0c.82-2.72,2.86-3.56,5.46-4.63,1.24-.51,2.65-1.09,4.07-1.96,3.47-2.12,6.65-2.66,8.74-1.49,1.24.69,1.95,1.94,1.95,3.42,0,1.94-1.32,3.38-2.61,4.77-1.09,1.18-2.22,2.39-2.61,3.94l-.02.06c-.46,1.55-.1,3.17.24,4.74.4,1.85.82,3.77-.17,5.44-.74,1.25-1.95,1.95-3.33,1.95ZM149.62,226.52c-.62,2.53.66,4.21,2.27,6.34.82,1.08,1.75,2.31,2.55,3.82,1.83,3.43,4.15,5.42,6.37,5.48,1.24.02,2.33-.6,3-1.72.9-1.51.52-3.25.12-5.09-.35-1.62-.72-3.31-.23-4.96.44-1.72,1.6-2.99,2.73-4.21,1.28-1.38,2.49-2.69,2.48-4.45,0-1.31-.63-2.4-1.71-3.01-1.94-1.08-4.95-.54-8.27,1.48-1.46.89-2.88,1.48-4.14,1.99-2.47,1.02-4.43,1.82-5.18,4.31Z"/>
          </g>
          <g>
            <path class="cls-5" d="M143.88,235.15c3.58-1.36,7.2-.59,8.07,1.72s-1.32,5.28-4.9,6.64c-3.58,1.36-7.2.59-8.07-1.72-.88-2.31,1.32-5.28,4.9-6.64Z"/>
            <path class="cls-2" d="M143.57,244.42c-2.3,0-4.19-.91-4.81-2.54-.45-1.2-.17-2.58.81-3.9.95-1.29,2.45-2.37,4.23-3.05,3.7-1.4,7.46-.57,8.38,1.86.92,2.43-1.34,5.55-5.04,6.95-1.22.46-2.44.68-3.57.68ZM147.39,234.72c-1.08,0-2.25.21-3.43.66-1.69.64-3.12,1.67-4.02,2.88-.88,1.19-1.14,2.41-.75,3.45.83,2.18,4.31,2.9,7.77,1.58,3.46-1.31,5.59-4.15,4.77-6.34-.55-1.44-2.25-2.24-4.34-2.24Z"/>
          </g>
          <g>
            <path class="cls-5" d="M149.06,216.17c2.4,2.99,5.9,4.16,7.83,2.62s1.55-5.22-.85-8.21c-2.4-2.99-5.9-4.16-7.83-2.62-1.93,1.54-1.55,5.22.85,8.21Z"/>
            <path class="cls-2" d="M154.81,219.71c-.55,0-1.13-.1-1.74-.3-1.52-.51-3.01-1.61-4.2-3.09s-1.93-3.18-2.1-4.77c-.17-1.63.29-2.97,1.29-3.77,2.03-1.62,5.69-.43,8.16,2.65,2.47,3.09,2.84,6.92.81,8.55-.61.49-1.37.74-2.23.74ZM150.3,207.51c-.74,0-1.4.2-1.94.63-.87.7-1.26,1.89-1.11,3.35.16,1.51.86,3.11,2,4.52h0c1.13,1.41,2.54,2.45,3.98,2.93,1.4.47,2.65.34,3.52-.35,1.82-1.46,1.43-5-.88-7.88-1.63-2.04-3.79-3.21-5.56-3.21Z"/>
          </g>
          <g>
            <path class="cls-5" d="M138.67,224.63c4.03.36,7.1,2.76,6.86,5.36-.23,2.59-3.69,4.4-7.71,4.04-4.03-.36-7.1-2.76-6.86-5.36.23-2.59,3.69-4.4,7.71-4.04Z"/>
            <path class="cls-2" d="M138.85,234.31c-.35,0-.7-.02-1.05-.05-1.99-.18-3.82-.85-5.15-1.89-1.36-1.06-2.05-2.39-1.92-3.72.25-2.72,3.82-4.63,7.97-4.25,1.99.18,3.82.85,5.15,1.89,1.36,1.06,2.04,2.39,1.92,3.72-.12,1.34-1.03,2.52-2.56,3.32-1.23.64-2.75.98-4.36.98ZM137.64,224.82c-3.44,0-6.25,1.62-6.45,3.87-.11,1.17.51,2.35,1.74,3.31,1.26.98,3,1.62,4.9,1.79,1.9.18,3.73-.14,5.15-.88,1.38-.72,2.2-1.77,2.31-2.94s-.51-2.35-1.74-3.31c-1.26-.98-3-1.62-4.9-1.79h0c-.34-.03-.68-.05-1.01-.05Z"/>
          </g>
          <g>
            <path class="cls-5" d="M139.23,222.59c3.65,1.73,7.52,1.23,8.63-1.13,1.12-2.35-.94-5.67-4.59-7.4-3.65-1.73-7.52-1.23-8.63,1.13-1.12,2.35.94,5.67,4.59,7.4Z"/>
            <path class="cls-2" d="M143.52,223.85c-1.38,0-2.9-.34-4.39-1.04h0c-3.76-1.78-5.88-5.25-4.7-7.71,1.17-2.47,5.19-3.02,8.95-1.24,3.76,1.78,5.87,5.24,4.7,7.71-.71,1.49-2.46,2.29-4.56,2.29ZM139.33,222.38c3.53,1.67,7.26,1.22,8.32-1.02,1.06-2.23-.95-5.41-4.48-7.08-3.53-1.67-7.26-1.22-8.32,1.02-1.06,2.23.95,5.41,4.48,7.08h0Z"/>
          </g>
        </g>
      </g>
    </g>
  </g>
</svg>